<svg width="203" height="80" viewBox="0 0 203 80" fill="none" xmlns="http://www.w3.org/2000/svg">
  <path
    d="M15.9164 46.2803C15.5775 39.8798 18.4583 25.6018 32.6926 19.6937C46.927 13.7856 66.4146 12.6368 74.379 12.8009C72.3455 14.2779 68.1769 17.3305 67.7702 17.7244C67.3635 18.1182 68.6175 18.5449 69.2953 18.709C74.5485 18.0526 85.8682 16.8381 89.1218 17.232C93.1887 17.7244 104.881 12.8009 110.982 13.2933C115.862 13.6871 117.76 14.1138 118.099 14.2779C114.032 14.4421 104.983 16.1489 101.323 21.6631C101.323 22.1554 123.183 20.1861 131.317 17.232C139.45 14.2779 154.193 11.8162 163.852 15.755C158.43 16.0832 146.466 17.7244 141.992 21.6631C136.4 26.5865 128.266 32.4946 122.166 36.9257L122.166 36.9257C117.285 40.4706 106.237 42.0133 101.323 42.3415C104.373 43.3262 111.795 45.394 117.082 45.7879C122.369 46.1818 125.047 46.9367 125.724 47.2649C122.505 47.1008 114.439 47.3634 107.931 49.7267C101.424 52.0899 92.0025 52.6807 88.105 52.6807C89.3477 53.7505 92.2779 55.7573 95.5207 56.677C96.4459 56.7722 97.2017 56.9303 97.7641 57.1118C97.0109 57.0389 96.2577 56.886 95.5207 56.677C91.4276 56.2558 84.0204 57.0662 75.3958 62.5276C62.1781 70.8974 36.2513 74.3438 26.0838 67.9434C17.9499 62.823 15.9164 51.3678 15.9164 46.2803Z"
    fill="#FF842B" stroke="black" />
  <path
    d="M40.3182 27.5712C36.7596 25.1095 33.7094 27.0789 29.1341 31.51C26.4175 33.9717 28.1173 38.8951 28.1173 39.8798C28.1173 40.8645 22.5253 40.8645 22.0169 47.265C21.5085 53.6654 29.1341 52.6807 29.1341 54.1578C30.3542 60.0659 35.404 61.8712 37.7764 62.0353C35.7429 62.6917 39.8098 66.4664 42.8601 67.451C50.994 70.0769 56.7555 63.6764 58.1112 60.0659C58.9585 60.0659 61.5681 59.2781 65.2284 56.1271C68.8886 52.9761 65.3978 48.9061 63.1949 47.265C63.8727 47.1009 65.8384 46.2803 68.2786 44.3109C71.3288 41.8492 69.2953 37.9104 67.7702 35.9411C66.2451 33.9717 65.7367 33.4794 65.2284 29.0483C64.72 24.6172 58.6196 24.6172 56.5861 25.1095C54.5526 25.6019 53.0275 22.6478 47.9438 22.6478C42.8601 22.6478 43.8768 30.0329 40.3182 27.5712Z"
    fill="#FFE600" />
  <path
    d="M56.4618 27.4936C54.6795 24.7653 51.8241 22.3339 48.2595 23.299C44.5225 24.3013 43.6026 27.9019 43.2193 31.1685C43.1043 32.1893 41.4562 32.0965 41.3796 31.0943C40.6897 21.4987 53.5297 17.9166 57.4392 27.0111C57.6692 27.5679 56.8068 28.0133 56.481 27.4936H56.4618Z"
    fill="#3A3A3A" />
  <path
    d="M42.6827 32.7461C41.7628 32.0965 40.5938 31.5954 39.5781 32.3007C38.5049 33.0245 38.3516 34.4537 37.2018 35.0661C36.8568 35.2517 36.3969 35.1775 36.2435 34.7692C35.5728 33.0431 37.4126 30.9458 38.9457 30.222C40.7471 29.3682 42.5677 30.0549 43.9475 31.317C44.8674 32.1522 43.6984 33.4514 42.7019 32.7461H42.6827Z"
    fill="#3A3A3A" />
  <path
    d="M41.2071 28.4031C39.4249 27.9762 38.0642 27.0482 36.1286 27.3452C33.9631 27.6792 32.0275 28.997 30.6476 30.5932C29.287 32.1708 28.3671 34.1381 28.2521 36.1983C28.1371 38.4441 29.5745 39.966 29.9003 42.0447C29.9769 42.5644 29.3636 42.9541 28.9037 42.7314C26.6423 41.6364 26.029 38.2213 26.2015 35.9941C26.374 33.4514 27.5814 31.0201 29.3637 29.1455C31.8933 26.4914 39.1565 23.1692 41.667 27.7349C41.8395 28.0319 41.6479 28.5144 41.2262 28.4216L41.2071 28.4031Z"
    fill="#3A3A3A" />
  <path
    d="M31.1074 40.6156C30.9349 41.191 30.705 41.7849 30.6092 42.3788C30.5133 42.8614 30.6667 43.3439 30.5517 43.8079C30.4367 44.1977 30.0534 44.3276 29.6893 44.1049C28.5394 43.3625 29.5168 41.1724 29.9192 40.2444C30.1875 39.6134 31.3182 39.9475 31.1074 40.6156Z"
    fill="#3A3A3A" />
  <path
    d="M28.0029 40.8012C25.2625 42.119 23.0778 44.6617 23.1928 47.7427C23.3461 51.4547 26.7381 52.624 30.0343 52.8838C31.0884 52.9581 31.0118 54.6841 29.9577 54.6841C25.7799 54.6656 21.6787 52.5497 21.353 48.1325C21.0655 44.3277 23.806 40.6528 27.5813 39.7248C28.3287 39.5392 28.6737 40.4672 27.9838 40.8012H28.0029Z"
    fill="#3A3A3A" />
  <path
    d="M30.8584 51.3062C29.8427 54.5728 29.7276 57.6538 33.1389 59.584C36.2435 61.3472 39.6547 60.6234 42.5485 58.8602C43.6025 58.2291 44.5607 59.6026 43.6409 60.3821C40.3446 63.129 35.1703 63.2774 31.6057 60.9203C28.1179 58.6189 27.1405 54.1088 29.5552 50.7123C29.9576 50.1369 31.0692 50.6195 30.8584 51.3062Z"
    fill="#3A3A3A" />
  <path
    d="M38.2558 60.9389C39.3481 65.5046 42.2228 67.6576 47.2055 66.9894C52.4181 66.2842 56.2509 62.832 57.2858 57.8579C57.5541 56.5773 59.4705 56.9299 59.3172 58.2105C58.589 64.3168 52.8014 68.5856 46.688 69.031C41.9353 69.3837 35.8219 66.5811 37.0484 61.0502C37.1634 60.512 38.1216 60.3078 38.275 60.9389H38.2558Z"
    fill="#3A3A3A" />
  <path
    d="M55.9443 24.4684C58.4932 22.7609 61.6935 23.3919 63.9358 25.3964C65.8713 27.141 67.9603 31.5954 65.6414 33.7855C65.2006 34.1938 64.549 33.9897 64.434 33.4143C64.2041 32.2636 64.7215 31.1314 64.4915 29.925C64.2616 28.7186 63.6291 27.605 62.7284 26.7513C61.0994 25.2108 58.6656 24.6725 56.5192 25.5263C55.8485 25.8047 55.3502 24.8396 55.9443 24.4498V24.4684Z"
    fill="#3A3A3A" />
  <path
    d="M61.3294 31.2985C66.5804 30.686 70.5474 35.1404 70.6241 39.9845C70.7007 44.1791 66.063 50.4895 61.0803 48.2066C60.6395 48.0025 60.5054 47.2972 60.9845 47.0374C62.8434 46.0537 64.9898 46.3135 66.6379 44.773C67.9794 43.511 68.5927 41.6921 68.5735 39.9289C68.5352 35.6972 65.4497 33.0802 61.272 32.8761C60.3137 32.8204 60.4479 31.3913 61.3294 31.2985Z"
    fill="#3A3A3A" />
  <path
    d="M64.3382 47.3157C67.3278 48.6706 68.286 52.197 67.1362 55.0553C65.7564 58.5074 62.0385 60.6975 58.359 61.1058C56.96 61.2543 56.8258 59.2869 58.1482 59.0271C60.927 58.4889 63.6675 57.2268 65.0281 54.6469C66.3888 52.0671 65.2389 50.2296 63.5525 48.188C63.15 47.7055 63.7825 47.0744 64.3191 47.3157H64.3382Z"
    fill="#3A3A3A" />
  <path
    d="M55.8292 32.2636C58.0522 33.2287 59.7387 35.1961 59.3554 37.6646C59.0104 39.9289 56.8641 42.3046 54.4494 42.5087C53.7403 42.5644 53.4911 41.7292 53.9894 41.3209C55.3692 40.2073 57.0365 39.6505 57.6306 37.8316C58.263 35.8828 56.9024 34.3423 55.2926 33.3586C54.641 32.9503 55.0818 31.9295 55.8292 32.2636Z"
    fill="#3A3A3A" />
  <path
    d="M59.298 44.309C60.4862 45.3298 61.0802 46.5548 60.7928 48.1138C60.5245 49.58 59.5854 51.0463 58.1673 51.6588C57.7074 51.8629 57.3241 51.3432 57.4965 50.9535C57.9181 49.9884 58.723 49.2645 59.0871 48.2623C59.5087 47.1301 59.1255 46.0351 58.4356 45.07C58.0523 44.5503 58.7997 43.8636 59.298 44.309Z"
    fill="#3A3A3A" />
  <path
    d="M40.1722 42.5087C39.4822 44.3647 39.0223 46.1094 40.3063 47.8726C41.5712 49.5986 43.3343 49.5058 45.1549 50.2482C45.6915 50.471 45.5381 51.1206 45.0974 51.3433C42.7593 52.4754 39.7697 50.471 38.6007 48.5593C37.355 46.5362 37.2783 43.5666 39.1373 41.8591C39.6547 41.3765 40.4213 41.8591 40.1722 42.5087Z"
    fill="#3A3A3A" />
  <path
    d="M54.0662 48.3922C53.8171 49.3202 53.4146 50.0441 52.6097 50.638C51.9198 51.1391 50.9042 51.6403 50.1376 51.0835C49.8693 50.8979 49.9076 50.5452 50.0801 50.3039C50.4442 49.8028 51.0958 49.8028 51.6132 49.4687C52.1498 49.1161 52.6097 48.5778 52.9164 48.0396C53.223 47.4828 54.2579 47.7241 54.0662 48.3922Z"
    fill="#3A3A3A" />
  <path
    d="M54.1237 57.8579C53.7021 59.2313 53.0697 60.1779 51.6707 60.7904C50.4059 61.3472 48.7002 61.5513 47.4162 60.9388C47.033 60.7532 47.0138 60.1407 47.4545 60.0108C48.4703 59.6953 49.5626 59.8252 50.5783 59.5097C51.594 59.2127 52.4756 58.4147 52.9355 57.4867C53.223 56.8927 54.3153 57.1711 54.1045 57.8579H54.1237Z"
    fill="#3A3A3A" />
  <path
    d="M50.4251 37.182C48.2404 36.1426 46.209 36.718 43.9093 36.7366C43.4877 36.7366 43.1043 36.1241 43.5834 35.8828C46.0556 34.6207 48.8344 34.4351 51.1725 36.0498C51.824 36.4953 51.115 37.5161 50.4251 37.182Z"
    fill="#3A3A3A" />
  <path
    d="M74.0162 13.1468C61.6361 14.1119 48.2403 13.7964 36.6268 18.6034C23.4035 24.0786 13.8022 37.4604 16.8493 51.6217C23.7293 83.6934 64.2233 67.4349 83.6941 58.0992C84.2499 57.8208 84.7289 58.7302 84.2115 59.0457C64.5682 70.8685 22.2345 85.0112 14.9905 52.16C12.5375 41.0425 17.5393 29.758 26.4123 22.6124C39.6739 11.9404 57.8033 13.1282 73.9587 12.3302C74.4953 12.3116 74.5911 13.1097 74.0353 13.1468H74.0162Z"
    fill="#3A3A3A" />
  <path
    d="M75.4151 13.6851C72.9238 14.9286 70.6049 16.2649 68.3244 17.824C67.9219 18.1024 67.4429 17.5827 67.7495 17.2115C69.5701 15.0214 72.4064 13.7593 75.0127 12.6271C75.7026 12.3302 76.0667 13.351 75.4151 13.6851Z"
    fill="#3A3A3A" />
  <path
    d="M68.9568 18.158C77.849 16.1164 86.7795 17.3785 95.8058 15.1513C103.395 13.2767 110.39 11.3465 118.132 13.685C118.765 13.8706 118.63 14.8357 117.94 14.6873C108.435 12.7385 100.597 15.6153 91.4556 17.5455C84.0199 19.1231 76.565 17.6012 69.1293 18.8818C68.7077 18.9561 68.5352 18.2508 68.9568 18.158Z"
    fill="#3A3A3A" />
  <path
    d="M118.094 14.6872C114.683 14.8172 103.395 18.3436 101.843 22.2597C101.555 22.965 100.463 22.4639 100.731 21.7586C100.789 21.6101 100.827 21.4616 100.884 21.3132C100.98 20.9791 101.248 20.7749 101.613 20.812C123.479 23.5218 143.391 6.61363 165.027 15.4668C165.525 15.6709 165.276 16.5247 164.739 16.3762C151.133 12.3487 139.634 15.4296 126.449 19.2716C124.399 19.8655 101.402 23.5961 101.862 22.2783C101.651 22.9093 100.501 22.5567 100.712 21.9256C102.264 17.1743 113.379 13.6479 118.017 13.7221C118.669 13.7221 118.784 14.6872 118.113 14.7244L118.094 14.6872Z"
    fill="#3A3A3A" />
  <path
    d="M164.011 16.6546C148.699 16.5989 138.197 24.5983 127.446 34.0268C118.63 41.7849 110.85 42.2489 99.3513 43.511C98.6805 43.5852 98.3931 42.5273 99.083 42.3603C106.48 40.4671 113.839 41.4322 120.624 37.2934C125.645 34.231 129.362 29.6652 133.923 26.0645C142.298 19.4201 153.107 14.8172 164.05 15.9122C164.49 15.9493 164.471 16.6732 164.011 16.6732V16.6546Z"
    fill="#3A3A3A" />
  <path
    d="M100.827 41.3766C108.933 46.6848 120.125 41.9705 127.561 48.0582C127.925 48.3552 127.561 48.912 127.12 48.7264C118.285 45.0144 107.994 47.9468 99.8878 42.4716C99.1021 41.952 100.06 40.8755 100.846 41.3766H100.827Z"
    fill="#3A3A3A" />
  <path
    d="M126.584 48.615C118.458 46.5177 111.865 50.3225 104.2 52.1228C98.278 53.5148 91.743 53.9046 85.6488 54.2016C85.1314 54.2201 85.0356 53.5891 85.4572 53.3849C92.1072 50.0812 101.593 51.1763 108.876 49.0604C115.047 47.2787 120.623 45.4227 126.871 47.7056C127.388 47.8912 127.12 48.7449 126.584 48.615Z"
    fill="#3A3A3A" />
  <path
    d="M87.2969 53.125C91.1681 54.9068 95.2692 55.3151 99.2554 56.6329C99.6386 56.7628 99.5236 57.431 99.1212 57.4124C95.0584 57.3567 90.3632 56.039 86.837 54.0902C86.2237 53.7561 86.6645 52.791 87.3161 53.1065L87.2969 53.125Z"
    fill="#3A3A3A" />
  <path
    d="M99.4087 58.2476C96.3041 57.9878 93.2953 57.7094 90.1715 57.9878C87.2394 58.2476 84.4798 59.0828 81.6051 59.6396C81.1452 59.7324 80.8769 59.0271 81.2985 58.8044C86.3579 56.1503 94.1002 55.7791 99.562 57.4124C100.099 57.5795 99.9836 58.2847 99.4087 58.2476Z"
    fill="#3A3A3A" />
  <path
    d="M49.3902 12.7384C63.9741 10.6783 77.849 -0.513411 92.9312 2.49331C93.5253 2.60467 93.372 3.45843 92.7588 3.40275C76.9675 1.91795 64.8174 13.5922 49.4668 13.6479C48.8728 13.6479 48.7769 12.8312 49.371 12.7384H49.3902Z"
    fill="#3A3A3A" />
  <path
    d="M92.9886 3.32855C90.8997 4.25655 85.802 8.54392 84.6714 8.09847C85.2846 8.33976 87.546 7.07767 88.1401 6.83639C93.966 4.49783 100.75 3.40279 106.959 2.56759C119.723 0.822946 134.345 0.247585 146.476 5.12887C146.974 5.33303 146.706 6.16823 146.188 6.01975C134.767 2.69751 123.076 2.12215 111.252 3.30999C105.12 3.92247 99.0253 4.94327 93.0653 6.55799C90.9189 7.13335 86.4728 7.61591 84.8247 9.19352C84.518 9.49048 83.8473 9.30488 83.9814 8.80376C84.8438 5.66711 89.9415 3.66263 92.7203 2.58615C93.2186 2.38199 93.4869 3.12439 93.0078 3.34711L92.9886 3.32855Z"
    fill="#3A3A3A" />
  <path
    d="M146.438 6.0197C142.509 7.02194 138.58 8.78514 134.594 9.43474C134.153 9.50898 133.885 8.84082 134.288 8.63666C137.795 6.74354 142.26 5.68562 146.208 5.03602C146.783 4.94322 147.013 5.87122 146.438 6.0197Z"
    fill="#3A3A3A" />
  <path
    d="M132.524 10.0287C155.981 3.40277 179.189 15.6338 202.493 17.4713C202.914 17.5084 202.895 18.2137 202.455 18.2137C178.461 17.8239 157.055 5.81557 132.697 10.7525C132.275 10.8453 132.103 10.1401 132.524 10.0287Z"
    fill="#3A3A3A" />
  <path
    d="M201.63 18.6963C189.212 18.3993 179.113 24.8953 167.365 27.5123C156.518 29.9065 144.387 29.2384 135.514 36.6809C134.997 37.1078 134.211 36.2912 134.709 35.8086C141.915 28.8486 152.934 28.6073 162.382 27.0112C175.855 24.7283 187.698 17.0816 201.669 17.7683C202.205 17.7868 202.167 18.7148 201.63 18.6963Z"
    fill="#3A3A3A" />
  <path
    d="M135.955 35.1961C140.861 35.3817 146.783 36.1241 151.133 38.4441C151.574 38.6853 151.382 39.3349 150.865 39.2607C148.316 38.8895 145.824 37.9615 143.295 37.4233C140.861 36.9221 138.389 36.6252 135.916 36.3839C135.227 36.3097 135.265 35.1589 135.974 35.1775L135.955 35.1961Z"
    fill="#3A3A3A" />
  <path
    d="M151.21 38.7596C142.049 39.4092 137.545 47.7426 130.071 51.6588C122.962 55.3894 114.357 56.1689 106.423 56.5772C105.886 56.5958 105.637 55.7791 106.212 55.6492C116.81 53.2364 126.66 53.4777 135.418 46.0722C140.209 42.0076 144.406 37.7017 151.133 37.7017C151.823 37.7017 151.938 38.7039 151.229 38.741L151.21 38.7596Z"
    fill="#3A3A3A" />
  <path
    d="M109.432 55.9462C111.635 57.4867 114.069 58.6745 116.254 60.2521C116.733 60.5862 116.331 61.3286 115.775 61.2358C98.4313 58.2476 82.1418 66.3027 65.0856 66.8409C64.5874 66.8409 64.3191 66.0985 64.8749 65.95C75.9326 63.2403 87.7186 61.1244 99.0446 59.9366C99.1213 59.9366 113.744 59.0271 113.648 59.7696C113.648 59.6211 109.221 57.3753 108.627 56.6329C108.224 56.1318 108.952 55.5935 109.432 55.9276V55.9462Z"
    fill="#3A3A3A" />
  <path
    d="M50.7124 14.1305C49.4284 14.3161 48.2402 14.6687 46.937 14.7615C46.4004 14.7986 46.3621 14.0748 46.8604 13.982C48.1252 13.7221 49.3134 13.2767 50.5974 13.1097C51.2873 13.0169 51.3639 14.0377 50.6932 14.1305H50.7124Z"
    fill="#3A3A3A" />
  <path
    d="M43.7559 12.2559C36.4735 14.1676 29.996 16.5433 23.9593 20.9977C23.576 21.2761 23.0585 20.7379 23.3843 20.3852C28.4245 15.0214 36.4926 13.1839 43.4684 11.5135C43.9667 11.4022 44.2541 12.126 43.7559 12.2559Z"
    fill="#3A3A3A" />
  <path
    d="M19.6282 25.6933C18.785 26.1202 18.0759 26.6956 17.4818 27.438C16.9069 28.1432 16.5619 28.9784 16.0445 29.7208C15.7571 30.1292 15.1821 29.758 15.2205 29.3496C15.4504 27.3452 17.3093 25.582 19.0724 24.7282C19.6474 24.4498 20.184 25.4149 19.609 25.7119L19.6282 25.6933Z"
    fill="#3A3A3A" />
  <path
    d="M10.4101 47.0188C11.1 51.4918 11.7324 56.1875 13.3614 60.4377C15.5461 66.1728 19.3981 69.031 24.8024 71.8336C25.2624 72.0749 25.0707 72.8358 24.5149 72.7059C12.384 69.7177 10.6784 57.2454 9.60517 47.0931C9.54768 46.5919 10.3334 46.5177 10.4101 47.0188Z"
    fill="#3A3A3A" />
  <path
    d="M81.4902 67.6947C66.5804 70.1446 51.2491 77.9212 35.8794 75.9353C35.3045 75.8611 35.3236 74.9145 35.9177 74.9145C51.8432 75.2486 65.7564 67.342 81.3944 66.7667C82.0076 66.7481 82.0843 67.5833 81.4902 67.6761V67.6947Z"
    fill="#3A3A3A" />
  <path
    d="M35.9752 79.9814C33.7522 79.9814 31.3758 79.4432 29.2103 78.9977C28.712 78.8864 28.7311 78.1811 29.2486 78.1254C31.4716 77.847 33.8097 78.775 36.0327 78.9606C36.6268 79.0163 36.5885 80 35.9944 80L35.9752 79.9814Z"
    fill="#3A3A3A" />
  <path
    d="M75.6642 0.971401C66.8104 2.4562 59.3555 8.43253 50.3675 9.19349C49.9075 9.23061 49.6967 8.50677 50.1758 8.39541C58.9339 6.37237 66.6379 1.30548 75.5684 0.00627876C76.22 -0.0865214 76.2966 0.878601 75.6642 0.971401Z"
    fill="#3A3A3A" />
  <path
    d="M9.68186 34.0454C7.99541 41.6364 4.37337 47.8355 7.9954 55.5379C8.20621 56.0019 7.53547 56.2617 7.22885 55.9276C1.99702 49.7843 6.53891 40.2444 8.70447 33.7484C8.87695 33.2102 9.79685 33.5071 9.68186 34.0454Z"
    fill="#3A3A3A" />
  <path
    d="M2.43781 44.4018C2.07369 45.534 1.8054 46.6847 1.78624 47.8725C1.78624 48.9119 2.0162 49.8956 2.07369 50.9164C2.09285 51.3989 1.44126 51.5289 1.23046 51.102C0.214756 48.9305 0.732218 46.2578 1.49879 44.1049C1.67126 43.6037 2.61029 43.8821 2.43781 44.4018Z"
    fill="#3A3A3A" />
  <path
    d="M5.69579 58.1177C8.01466 64.5023 11.4642 69.2351 17.4818 72.7801C17.9417 73.0585 17.6351 73.6895 17.1176 73.5039C10.4868 71.1097 6.76896 64.6322 4.83338 58.4146C4.6609 57.8764 5.50415 57.5609 5.69579 58.0991V58.1177Z"
    fill="#3A3A3A" />
  <path
    d="M169.377 32.7462C164.184 32.8204 159.699 33.9526 154.678 35.0662C154.123 35.1961 153.854 34.5094 154.372 34.2495C158.76 32.1151 164.567 31.3356 169.416 31.7811C169.971 31.8367 169.952 32.7462 169.377 32.7462Z"
    fill="#3A3A3A" />
</svg>
  