<svg width="24" height="24" viewBox="0 0 24 24" fill="none" xmlns="http://www.w3.org/2000/svg">
  <path
    d="M23.4999 12.2733C23.5009 11.4556 23.4333 10.6393 23.2979 9.83337H12.2334V14.4549H18.5706C18.4409 15.193 18.1665 15.8966 17.7637 16.5233C17.361 17.15 16.8384 17.6868 16.2274 18.1014V21.1013H20.0095C22.224 19.013 23.4999 15.9248 23.4999 12.2733Z"
    fill="#4285F4" />
  <path
    d="M12.2318 23.9997C15.3979 23.9997 18.0638 22.9364 20.0079 21.1032L16.2257 18.1033C15.1731 18.8333 13.8173 19.2499 12.2318 19.2499C9.17152 19.2499 6.57405 17.14 5.64522 14.2968H1.74902V17.3883C2.72555 19.3757 4.22293 21.0464 6.07402 22.2139C7.9251 23.3813 10.057 23.9996 12.2318 23.9997Z"
    fill="#34A853" />
  <path
    d="M5.64551 14.2968C5.15447 12.8069 5.15447 11.1935 5.64551 9.70362V6.61206H1.74931C0.927829 8.28392 0.5 10.1291 0.5 12.0002C0.5 13.8713 0.927829 15.7165 1.74931 17.3883L5.64551 14.2968Z"
    fill="#FBBC04" />
  <path
    d="M12.2318 4.75037C13.9049 4.72241 15.5217 5.36898 16.7325 6.55031L20.0812 3.12543C17.9578 1.08563 15.1447 -0.034254 12.2318 0.000543143C10.057 0.000644515 7.9251 0.618945 6.07402 1.78642C4.22293 2.95389 2.72555 4.62458 1.74902 6.61197L5.64522 9.70353C6.57405 6.86029 9.17152 4.75037 12.2318 4.75037Z"
    fill="#EA4335" />
</svg>