<svg width="17" height="24" viewBox="0 0 17 24" fill="none" xmlns="http://www.w3.org/2000/svg">
  <path fill-rule="evenodd" clip-rule="evenodd"
    d="M16.3 16C16.3015 17.4047 15.9425 18.785 15.2589 20.0022C14.5753 21.2194 13.5913 22.2306 12.4058 22.934C11.2203 23.6374 9.87511 24.0082 8.50555 24.0092C7.13598 24.0102 5.79035 23.6413 4.60388 22.9397C3.41741 22.2381 2.4319 21.2284 1.7466 20.0122C1.06131 18.796 0.700346 17.4162 0.699951 16.0115C0.699557 14.6068 1.05973 13.2268 1.74434 12.0102C2.42895 10.7936 3.41387 9.78334 4.59995 9.08099V4C4.59995 2.93913 5.0109 1.92172 5.74229 1.17157C6.47368 0.421424 7.46561 0 8.49995 0C9.5343 0 10.5262 0.421424 11.2576 1.17157C11.989 1.92172 12.4 2.93913 12.4 4V9.07999C13.5851 9.78082 14.5694 10.7893 15.254 12.004C15.9386 13.2188 16.2993 14.5969 16.3 16ZM4.59995 9.08099L4.72671 9.00201H4.59995V9.08099ZM8.49995 2.00201C7.98278 2.00201 7.48682 2.21273 7.12112 2.5878C6.75543 2.96287 6.54995 3.47158 6.54995 4.00201V8.26199C7.82747 7.91132 9.17243 7.91132 10.45 8.26199V4C10.45 3.46957 10.2445 2.96086 9.87878 2.58578C9.51309 2.21071 9.01712 2 8.49995 2V2.00201ZM12.4 9.00201H12.2732L12.4 9.08099V9V9.00201ZM8.49995 9.98901C7.34053 9.98862 6.2071 10.3409 5.24289 11.0012C4.27868 11.6616 3.52702 12.6004 3.08306 13.6989C2.6391 14.7974 2.52278 16.0063 2.74874 17.1727C2.97469 18.339 3.53282 19.4104 4.35251 20.2514C5.17221 21.0924 6.21657 21.6652 7.35368 21.8973C8.4908 22.1295 9.66951 22.0105 10.7407 21.5555C11.8119 21.1006 12.7276 20.33 13.3717 19.3413C14.0159 18.3526 14.3597 17.1902 14.3597 16.001C14.3582 14.4072 13.7404 12.879 12.6419 11.7516C11.5434 10.6242 10.0539 9.98965 8.49995 9.987V9.98901ZM8.49995 18.002C8.24137 18.002 7.99333 17.8966 7.81048 17.7091C7.62763 17.5216 7.52495 17.2672 7.52495 17.002V15.002C7.52495 14.7368 7.62763 14.4824 7.81048 14.2949C7.99333 14.1074 8.24137 14.002 8.49995 14.002C8.75854 14.002 9.00658 14.1074 9.18943 14.2949C9.37227 14.4824 9.47495 14.7368 9.47495 15.002V17.002C9.47444 17.2669 9.3715 17.5207 9.18871 17.7078C9.00592 17.8949 8.7582 18 8.49995 18V18.002Z"
    fill="#01C120" />
</svg>
  