<svg width="40" height="40" viewBox="0 0 40 40" fill="none" xmlns="http://www.w3.org/2000/svg">
  <g clip-path="url(#clip0_3326_34292)">
    <g clip-path="url(#clip1_3326_34292)">
      <path fill-rule="evenodd" clip-rule="evenodd"
        d="M38.2648 13.4273C38.9714 13.7335 39.2151 13.8391 39.2468 13.8528C39.8152 14.0986 40.1238 14.7295 39.953 15.3381C39.8204 15.8077 39.5286 16.0152 39.1923 16.1729C38.9914 16.2671 38.7574 16.1745 38.6656 15.9725C38.5341 15.6835 38.2605 15.4703 37.9277 15.4275C37.9404 15.4292 20.1261 13.1303 20.07 13.127C19.507 13.0883 18.9512 13.4612 18.7926 14.0466C18.5904 14.7397 19.0696 15.5185 19.8387 15.6146C20.9627 15.7596 23.5889 16.0985 26.4236 16.4643C30.2948 16.9638 34.5549 17.5136 35.9094 17.6881C36.1042 17.7132 36.2497 17.8791 36.2497 18.0755V31.8757C36.2497 32.5862 35.6577 33.1578 34.9399 33.1243C34.2673 33.0931 33.7496 32.5139 33.7496 31.8406V18.5289C33.2082 18.7633 21.365 23.8955 20.4958 24.2721C20.1767 24.4105 19.8173 24.4089 19.502 24.2721C15.1975 22.4069 11.6003 20.8481 8.61829 19.5558C5.25918 18.1002 2.68063 16.9828 0.750981 16.1467C-0.245477 15.7161 -0.255165 14.2879 0.750981 13.8528L19.502 5.7274C19.8192 5.58989 20.1786 5.58989 20.4958 5.7274C31.874 10.6581 36.505 12.6648 38.2648 13.4273ZM8.04401 22.032L18.5072 26.566C19.4582 26.9787 20.5394 26.979 21.4894 26.566L31.9534 22.032C32.2114 21.9203 32.4994 22.1093 32.4994 22.3905V26.8754C32.4994 31.0811 27.0084 34.3758 19.9987 34.3758C12.989 34.3758 7.49805 31.0811 7.49805 26.8754V22.3905C7.49805 22.1093 7.78603 21.9202 8.04401 22.032Z"
        fill="#4EAAFF" />
    </g>
  </g>
  <defs>
    <clipPath id="clip0_3326_34292">
      <rect width="40" height="40" fill="white" />
    </clipPath>
    <clipPath id="clip1_3326_34292">
      <rect width="40" height="40" fill="white" />
    </clipPath>
  </defs>
</svg>