<svg width="22" height="14" viewBox="0 0 22 14" fill="none" xmlns="http://www.w3.org/2000/svg">
  <path fill-rule="evenodd" clip-rule="evenodd"
    d="M11 12.0118C9.83793 13.0172 8.33053 13.6242 6.68337 13.6242C3.00802 13.6242 0.0285645 10.6023 0.0285645 6.87459C0.0285645 3.14689 3.00802 0.125 6.68337 0.125C8.33053 0.125 9.83793 0.731957 11 1.73739C12.1621 0.731957 13.6695 0.125 15.3166 0.125C18.992 0.125 21.9714 3.14689 21.9714 6.87459C21.9714 10.6023 18.992 13.6242 15.3166 13.6242C13.6695 13.6242 12.1621 13.0172 11 12.0118Z"
    fill="#ED0006" />
  <path fill-rule="evenodd" clip-rule="evenodd"
    d="M11 12.0118C12.4309 10.7738 13.3382 8.93165 13.3382 6.87459C13.3382 4.81752 12.4309 2.97538 11 1.73739C12.1621 0.731957 13.6695 0.125 15.3166 0.125C18.992 0.125 21.9714 3.14689 21.9714 6.87459C21.9714 10.6023 18.992 13.6242 15.3166 13.6242C13.6695 13.6242 12.1621 13.0172 11 12.0118Z"
    fill="#F9A000" />
  <path fill-rule="evenodd" clip-rule="evenodd"
    d="M11 12.0118C12.4309 10.7738 13.3382 8.93169 13.3382 6.87463C13.3382 4.81758 12.4309 2.97546 11 1.73746C9.56916 2.97546 8.66187 4.81758 8.66187 6.87463C8.66187 8.93169 9.56916 10.7738 11 12.0118Z"
    fill="#FF5E00" />
</svg>
  