<svg width="50" height="14" viewBox="0 0 50 14" fill="none" xmlns="http://www.w3.org/2000/svg">
  <path
    d="M6.00006 0.00192261H2.11098C1.84485 0.00192261 1.61852 0.195268 1.577 0.45799L0.00408279 10.4306C-0.0271937 10.6274 0.125207 10.8048 0.324808 10.8048H2.18149C2.44763 10.8048 2.67396 10.6115 2.71547 10.3482L3.13969 7.6584C3.18063 7.39511 3.40753 7.20176 3.67309 7.20176H4.90425C7.46607 7.20176 8.9446 5.96208 9.33072 3.50545C9.50473 2.43068 9.33811 1.58622 8.83485 0.994808C8.28211 0.345395 7.30173 0.00192261 6.00006 0.00192261ZM6.44874 3.64421C6.23606 5.03971 5.16981 5.03971 4.13883 5.03971H3.55197L3.96368 2.43352C3.98813 2.27601 4.12461 2.16 4.28384 2.16H4.55282C5.25511 2.16 5.91761 2.16 6.25994 2.56034C6.46409 2.79918 6.52664 3.15402 6.44874 3.64421Z"
    fill="#253B80" />
  <path
    d="M17.625 3.59791H15.7626C15.6039 3.59791 15.4669 3.71392 15.4424 3.87143L15.36 4.39233L15.2298 4.20353C14.8266 3.61838 13.9275 3.42276 13.0302 3.42276C10.9722 3.42276 9.21445 4.98146 8.87212 7.16797C8.69413 8.25867 8.94718 9.3016 9.56589 10.0289C10.1334 10.6977 10.9455 10.9763 11.9116 10.9763C13.5698 10.9763 14.4894 9.91006 14.4894 9.91006L14.4063 10.4275C14.3751 10.6254 14.5275 10.8029 14.7259 10.8029H16.4035C16.6702 10.8029 16.8954 10.6095 16.9375 10.3462L17.944 3.97209C17.9758 3.7759 17.824 3.59791 17.625 3.59791ZM15.029 7.22256C14.8493 8.28653 14.0049 9.00077 12.9278 9.00077C12.387 9.00077 11.9548 8.82733 11.6773 8.49864C11.4021 8.17223 11.2975 7.70763 11.385 7.19015C11.5528 6.13528 12.4115 5.39773 13.472 5.39773C14.0009 5.39773 14.4308 5.57344 14.714 5.90497C14.9978 6.23991 15.1103 6.70736 15.029 7.22256Z"
    fill="#253B80" />
  <path
    d="M27.544 3.5979H25.6725C25.4939 3.5979 25.3262 3.68661 25.2249 3.83503L22.6438 7.63711L21.5497 3.98345C21.4809 3.75485 21.2699 3.5979 21.0311 3.5979H19.192C18.9685 3.5979 18.8133 3.81627 18.8844 4.02667L20.9458 10.0761L19.0078 12.8119C18.8554 13.0275 19.0089 13.3237 19.2722 13.3237H21.1414C21.3188 13.3237 21.4849 13.2373 21.5855 13.0917L27.8101 4.10685C27.9591 3.8919 27.8061 3.5979 27.544 3.5979Z"
    fill="#253B80" />
  <path
    d="M33.7403 0.000549316H29.8506C29.5851 0.000549316 29.3588 0.193895 29.3172 0.456617L27.7443 10.4293C27.713 10.626 27.8654 10.8034 28.0639 10.8034H30.0599C30.2453 10.8034 30.404 10.6681 30.433 10.4838L30.8794 7.65702C30.9203 7.39373 31.1472 7.20039 31.4128 7.20039H32.6434C35.2057 7.20039 36.6837 5.9607 37.0704 3.50408C37.245 2.42931 37.0772 1.58484 36.5739 0.993434C36.0218 0.344022 35.042 0.000549316 33.7403 0.000549316ZM34.189 3.64283C33.9769 5.03833 32.9106 5.03833 31.8791 5.03833H31.2928L31.7051 2.43215C31.7295 2.27463 31.8648 2.15862 32.0246 2.15862H32.2936C32.9954 2.15862 33.6584 2.15862 34.0007 2.55896C34.2049 2.7978 34.2669 3.15265 34.189 3.64283Z"
    fill="#179BD7" />
  <path
    d="M45.3645 3.59791H43.5033C43.3435 3.59791 43.2076 3.71392 43.1837 3.87143L43.1012 4.39233L42.9704 4.20353C42.5672 3.61838 41.6687 3.42276 40.7714 3.42276C38.7134 3.42276 36.9562 4.98146 36.6139 7.16797C36.4365 8.25867 36.6884 9.3016 37.3071 10.0289C37.8758 10.6977 38.6867 10.9763 39.6528 10.9763C41.3111 10.9763 42.2306 9.91006 42.2306 9.91006L42.1476 10.4275C42.1163 10.6254 42.2687 10.8029 42.4683 10.8029H44.1453C44.4108 10.8029 44.6372 10.6095 44.6787 10.3462L45.6858 3.97209C45.7165 3.7759 45.5641 3.59791 45.3645 3.59791ZM42.7685 7.22256C42.59 8.28653 41.7444 9.00077 40.6673 9.00077C40.1277 9.00077 39.6944 8.82733 39.4168 8.49864C39.1416 8.17223 39.0381 7.70763 39.1246 7.19015C39.2934 6.13528 40.151 5.39773 41.2115 5.39773C41.7404 5.39773 42.1703 5.57344 42.4535 5.90497C42.7384 6.23991 42.851 6.70736 42.7685 7.22256Z"
    fill="#179BD7" />
  <path
    d="M47.56 0.274095L45.9638 10.4293C45.9325 10.626 46.0849 10.8035 46.2834 10.8035H47.8882C48.1549 10.8035 48.3812 10.6101 48.4221 10.3468L49.9962 0.374749C50.0275 0.177991 49.8751 0 49.6766 0H47.8796C47.721 0.000568663 47.5845 0.116576 47.56 0.274095Z"
    fill="#179BD7" />
</svg>
  